<svg xmlns="http://www.w3.org/2000/svg" xmlns:xlink="http://www.w3.org/1999/xlink" width="1080" zoomAndPan="magnify" viewBox="0 0 810 809.999993" height="1080" preserveAspectRatio="xMidYMid meet" version="1.0"><defs><clipPath id="a8432fe955"><path d="M 478.457031 81 L 758.105469 81 L 758.105469 419 L 478.457031 419 Z M 478.457031 81 " clip-rule="nonzero"/></clipPath><clipPath id="990fc403e0"><path d="M 54 602 L 456 602 L 456 725.25 L 54 725.25 Z M 54 602 " clip-rule="nonzero"/></clipPath><clipPath id="80eff4e921"><path d="M 51.824219 702 L 73 702 L 73 715 L 51.824219 715 Z M 51.824219 702 " clip-rule="nonzero"/></clipPath><clipPath id="a1cbd35487"><path d="M 106.351562 294 L 165.445312 294 L 165.445312 416 L 106.351562 416 Z M 106.351562 294 " clip-rule="nonzero"/></clipPath><clipPath id="87bdb4eeba"><path d="M 129.148438 376.125 C 133.800781 352.351562 141.898438 329.625 147 317.25 C 150.601562 308.476562 155.25 297.976562 157.648438 295.351562 C 158.398438 294.601562 158.773438 294.449219 159.523438 294.300781 C 160.425781 294.074219 161.851562 294.226562 162.675781 294.523438 C 163.351562 294.824219 163.949219 295.273438 164.324219 295.949219 C 164.851562 296.699219 165.300781 297.75 165.226562 298.949219 C 165 301.125 162.75 304.351562 160.726562 307.648438 C 157.726562 312.75 152.25 319.351562 148.050781 326.023438 C 143.398438 333.601562 138.449219 343.050781 134.25 351 C 130.5 358.050781 126.824219 364.949219 124.125 371.25 C 121.949219 376.574219 120.523438 383.699219 118.875 386.25 C 118.199219 387.300781 117.675781 387.824219 116.851562 388.125 C 115.875 388.425781 114.074219 388.273438 113.175781 387.75 C 112.425781 387.300781 111.898438 386.625 111.601562 385.5 C 110.925781 383.175781 111.449219 378.824219 112.726562 373.875 C 115.199219 364.050781 125.101562 343.5 130.425781 331.5 C 134.398438 322.5 138.824219 311.324219 141.226562 308.023438 C 142.050781 306.976562 142.5 306.523438 143.25 306.226562 C 144.074219 305.925781 145.199219 305.925781 146.023438 306.226562 C 146.773438 306.523438 147.601562 307.199219 148.050781 307.949219 C 148.425781 308.699219 148.574219 309.375 148.351562 310.648438 C 147.75 314.773438 139.949219 327.824219 136.949219 334.800781 C 134.699219 340.050781 133.574219 343.273438 131.550781 348.824219 C 128.550781 356.773438 123.226562 370.875 120.824219 378 C 119.476562 382.050781 118.5 384.523438 117.824219 387.523438 C 117.226562 390.226562 117.675781 392.851562 116.699219 395.101562 C 115.800781 397.273438 113.851562 400.726562 112.273438 400.949219 C 110.925781 401.175781 108.523438 399 107.851562 397.5 C 107.324219 396.226562 107.699219 395.25 108.226562 392.773438 C 110.175781 382.875 128.699219 326.550781 133.125 320.324219 C 133.949219 319.125 134.398438 318.898438 135.148438 318.675781 C 135.976562 318.375 137.023438 318.449219 137.773438 318.824219 C 138.523438 319.125 139.351562 319.875 139.648438 320.625 C 140.023438 321.375 140.023438 321.824219 139.875 323.25 C 138.976562 331.425781 119.175781 389.324219 115.648438 403.273438 C 114.449219 408.074219 114.601562 411.074219 113.699219 413.175781 C 113.324219 414.226562 112.875 414.824219 112.273438 415.273438 C 111.75 415.648438 111.226562 415.875 110.625 415.949219 C 109.875 415.949219 108.75 415.726562 108.074219 415.351562 C 107.550781 414.976562 107.175781 414.601562 106.949219 414 C 106.648438 413.324219 106.574219 412.574219 106.574219 411.449219 C 106.726562 408.898438 107.925781 404.175781 109.425781 399.226562 C 111.75 391.351562 116.023438 380.324219 120.523438 369.074219 C 126.375 354.300781 138.824219 322.800781 141.976562 318.523438 C 142.574219 317.773438 142.726562 317.625 143.324219 317.398438 C 143.925781 317.175781 145.050781 316.949219 145.800781 317.175781 C 146.550781 317.398438 147.375 318.074219 147.824219 318.675781 C 148.125 319.125 148.273438 319.5 148.351562 320.25 C 148.5 322.199219 147.675781 325.800781 146.324219 330.601562 C 143.023438 342.523438 128.699219 382.273438 123.976562 391.5 C 122.398438 394.425781 121.648438 396.601562 120.148438 396.898438 C 118.949219 397.199219 116.773438 395.550781 115.949219 394.273438 C 115.125 393 115.050781 391.199219 115.273438 389.25 C 115.648438 386.25 117.300781 383.476562 119.324219 378.375 C 124.425781 365.625 143.175781 318.824219 147.226562 312.824219 C 147.976562 311.699219 148.273438 311.398438 148.949219 311.101562 C 149.625 310.726562 150.601562 310.574219 151.351562 310.726562 C 152.101562 310.875 153 311.324219 153.449219 311.925781 C 154.050781 312.75 154.5 314.476562 154.351562 315.375 C 154.199219 316.199219 153.675781 317.023438 153 317.476562 C 152.175781 318 150.449219 318.300781 149.550781 318.148438 C 148.726562 317.925781 147.976562 317.398438 147.523438 316.726562 C 147.074219 315.824219 146.773438 314.101562 147.074219 313.199219 C 147.300781 312.375 147.976562 311.699219 148.574219 311.25 C 149.25 310.875 150.226562 310.648438 150.976562 310.726562 C 151.726562 310.800781 152.625 311.101562 153.148438 311.699219 C 153.824219 312.375 154.5 313.5 154.425781 315 C 154.199219 318.074219 150.074219 322.726562 147.300781 328.949219 C 141.898438 340.726562 130.199219 369.601562 126.226562 381 C 124.273438 386.476562 124.425781 392.699219 122.550781 393.300781 C 121.199219 393.675781 118.050781 391.726562 117.300781 389.101562 C 115.050781 381 136.273438 340.273438 139.574219 328.800781 C 140.851562 324.300781 140.625 321.074219 141.601562 319.273438 C 142.050781 318.300781 142.574219 317.699219 143.324219 317.398438 C 144.148438 317.101562 145.726562 317.101562 146.550781 317.550781 C 147.300781 317.851562 147.898438 318.675781 148.125 319.425781 C 148.425781 320.175781 148.351562 320.625 148.125 321.898438 C 146.773438 328.050781 132.75 356.925781 127.050781 371.398438 C 122.699219 382.648438 118.5 393.523438 116.175781 401.476562 C 114.75 406.5 114.898438 411.75 113.398438 414 C 112.648438 415.125 111.601562 415.726562 110.625 415.949219 C 109.800781 416.101562 108.75 415.726562 108.074219 415.351562 C 107.550781 414.976562 107.175781 414.675781 106.949219 414 C 106.5 412.800781 106.800781 411.074219 107.398438 407.925781 C 109.648438 395.699219 128.398438 327.300781 133.125 320.324219 C 133.949219 319.125 134.398438 318.898438 135.148438 318.675781 C 135.976562 318.375 137.023438 318.449219 137.773438 318.824219 C 138.523438 319.125 139.351562 319.875 139.648438 320.625 C 140.023438 321.375 140.023438 321.824219 139.875 323.25 C 138.898438 330.226562 122.773438 370.800781 118.648438 384 C 116.773438 390.300781 116.925781 397.425781 114.898438 398.101562 C 113.550781 398.476562 110.550781 395.773438 109.800781 393.898438 C 109.050781 391.800781 110.25 389.476562 111.226562 385.5 C 113.925781 375.300781 124.574219 345.976562 130.351562 331.800781 C 134.25 322.199219 138.824219 311.398438 141.226562 308.023438 C 142.050781 306.976562 142.5 306.523438 143.25 306.226562 C 144.074219 305.925781 145.199219 305.925781 146.023438 306.226562 C 146.773438 306.449219 147.601562 307.199219 148.050781 307.949219 C 148.425781 308.699219 148.574219 309.449219 148.351562 310.648438 C 147.898438 313.574219 144.074219 318.75 141.375 324.523438 C 137.101562 333.75 130.050781 351.148438 126 361.351562 C 123.148438 368.550781 119.925781 375.226562 119.023438 379.800781 C 118.5 382.425781 119.476562 384.824219 118.875 386.25 C 118.425781 387.148438 117.523438 387.75 116.851562 388.125 C 116.25 388.351562 115.648438 388.5 114.976562 388.351562 C 114.226562 388.273438 113.101562 387.675781 112.5 387.148438 C 112.050781 386.699219 111.75 386.175781 111.601562 385.5 C 111.449219 384.75 111.523438 384 111.824219 382.726562 C 112.574219 379.800781 115.5 373.425781 117.824219 368.175781 C 120.675781 361.800781 124.199219 354.675781 127.875 347.476562 C 131.925781 339.375 136.574219 330.449219 141.375 321.976562 C 146.476562 313.125 154.050781 298.5 157.648438 295.351562 C 158.773438 294.375 159.675781 294.226562 160.574219 294.148438 C 161.324219 294.074219 162 294.226562 162.675781 294.523438 C 163.5 294.976562 164.476562 296.023438 164.851562 296.851562 C 165.226562 297.523438 165.375 297.898438 165.226562 298.949219 C 164.699219 302.699219 157.425781 315.300781 154.050781 323.398438 C 150.824219 331.125 147.898438 339.148438 145.351562 346.425781 C 143.101562 352.800781 140.773438 358.875 139.425781 364.574219 C 138.300781 369.375 138.675781 375.523438 137.476562 378.074219 C 136.949219 379.273438 136.351562 379.949219 135.523438 380.398438 C 134.625 380.851562 133.425781 381 132.449219 380.773438 C 131.550781 380.550781 130.5 379.875 129.976562 379.050781 C 129.375 378.300781 129.148438 376.125 129.148438 376.125 " clip-rule="nonzero"/></clipPath><clipPath id="33d3be7b55"><path d="M 0.351562 0 L 59.445312 0 L 59.445312 122 L 0.351562 122 Z M 0.351562 0 " clip-rule="nonzero"/></clipPath><clipPath id="515a01f0d3"><path d="M 23.148438 82.125 C 27.800781 58.351562 35.898438 35.625 41 23.25 C 44.601562 14.476562 49.25 3.976562 51.648438 1.351562 C 52.398438 0.601562 52.773438 0.449219 53.523438 0.300781 C 54.425781 0.0742188 55.851562 0.226562 56.675781 0.523438 C 57.351562 0.824219 57.949219 1.273438 58.324219 1.949219 C 58.851562 2.699219 59.300781 3.75 59.226562 4.949219 C 59 7.125 56.75 10.351562 54.726562 13.648438 C 51.726562 18.75 46.25 25.351562 42.050781 32.023438 C 37.398438 39.601562 32.449219 49.050781 28.25 57 C 24.5 64.050781 20.824219 70.949219 18.125 77.25 C 15.949219 82.574219 14.523438 89.699219 12.875 92.25 C 12.199219 93.300781 11.675781 93.824219 10.851562 94.125 C 9.875 94.425781 8.074219 94.273438 7.175781 93.75 C 6.425781 93.300781 5.898438 92.625 5.601562 91.5 C 4.925781 89.175781 5.449219 84.824219 6.726562 79.875 C 9.199219 70.050781 19.101562 49.5 24.425781 37.5 C 28.398438 28.5 32.824219 17.324219 35.226562 14.023438 C 36.050781 12.976562 36.5 12.523438 37.25 12.226562 C 38.074219 11.925781 39.199219 11.925781 40.023438 12.226562 C 40.773438 12.523438 41.601562 13.199219 42.050781 13.949219 C 42.425781 14.699219 42.574219 15.375 42.351562 16.648438 C 41.75 20.773438 33.949219 33.824219 30.949219 40.800781 C 28.699219 46.050781 27.574219 49.273438 25.550781 54.824219 C 22.550781 62.773438 17.226562 76.875 14.824219 84 C 13.476562 88.050781 12.5 90.523438 11.824219 93.523438 C 11.226562 96.226562 11.675781 98.851562 10.699219 101.101562 C 9.800781 103.273438 7.851562 106.726562 6.273438 106.949219 C 4.925781 107.175781 2.523438 105 1.851562 103.5 C 1.324219 102.226562 1.699219 101.25 2.226562 98.773438 C 4.175781 88.875 22.699219 32.550781 27.125 26.324219 C 27.949219 25.125 28.398438 24.898438 29.148438 24.675781 C 29.976562 24.375 31.023438 24.449219 31.773438 24.824219 C 32.523438 25.125 33.351562 25.875 33.648438 26.625 C 34.023438 27.375 34.023438 27.824219 33.875 29.25 C 32.976562 37.425781 13.175781 95.324219 9.648438 109.273438 C 8.449219 114.074219 8.601562 117.074219 7.699219 119.175781 C 7.324219 120.226562 6.875 120.824219 6.273438 121.273438 C 5.75 121.648438 5.226562 121.875 4.625 121.949219 C 3.875 121.949219 2.75 121.726562 2.074219 121.351562 C 1.550781 120.976562 1.175781 120.601562 0.949219 120 C 0.648438 119.324219 0.574219 118.574219 0.574219 117.449219 C 0.726562 114.898438 1.925781 110.175781 3.425781 105.226562 C 5.75 97.351562 10.023438 86.324219 14.523438 75.074219 C 20.375 60.300781 32.824219 28.800781 35.976562 24.523438 C 36.574219 23.773438 36.726562 23.625 37.324219 23.398438 C 37.925781 23.175781 39.050781 22.949219 39.800781 23.175781 C 40.550781 23.398438 41.375 24.074219 41.824219 24.675781 C 42.125 25.125 42.273438 25.5 42.351562 26.25 C 42.5 28.199219 41.675781 31.800781 40.324219 36.601562 C 37.023438 48.523438 22.699219 88.273438 17.976562 97.5 C 16.398438 100.425781 15.648438 102.601562 14.148438 102.898438 C 12.949219 103.199219 10.773438 101.550781 9.949219 100.273438 C 9.125 99 9.050781 97.199219 9.273438 95.25 C 9.648438 92.25 11.300781 89.476562 13.324219 84.375 C 18.425781 71.625 37.175781 24.824219 41.226562 18.824219 C 41.976562 17.699219 42.273438 17.398438 42.949219 17.101562 C 43.625 16.726562 44.601562 16.574219 45.351562 16.726562 C 46.101562 16.875 47 17.324219 47.449219 17.925781 C 48.050781 18.75 48.5 20.476562 48.351562 21.375 C 48.199219 22.199219 47.675781 23.023438 47 23.476562 C 46.175781 24 44.449219 24.300781 43.550781 24.148438 C 42.726562 23.925781 41.976562 23.398438 41.523438 22.726562 C 41.074219 21.824219 40.773438 20.101562 41.074219 19.199219 C 41.300781 18.375 41.976562 17.699219 42.574219 17.25 C 43.25 16.875 44.226562 16.648438 44.976562 16.726562 C 45.726562 16.800781 46.625 17.101562 47.148438 17.699219 C 47.824219 18.375 48.5 19.5 48.425781 21 C 48.199219 24.074219 44.074219 28.726562 41.300781 34.949219 C 35.898438 46.726562 24.199219 75.601562 20.226562 87 C 18.273438 92.476562 18.425781 98.699219 16.550781 99.300781 C 15.199219 99.675781 12.050781 97.726562 11.300781 95.101562 C 9.050781 87 30.273438 46.273438 33.574219 34.800781 C 34.851562 30.300781 34.625 27.074219 35.601562 25.273438 C 36.050781 24.300781 36.574219 23.699219 37.324219 23.398438 C 38.148438 23.101562 39.726562 23.101562 40.550781 23.550781 C 41.300781 23.851562 41.898438 24.675781 42.125 25.425781 C 42.425781 26.175781 42.351562 26.625 42.125 27.898438 C 40.773438 34.050781 26.75 62.925781 21.050781 77.398438 C 16.699219 88.648438 12.5 99.523438 10.175781 107.476562 C 8.75 112.5 8.898438 117.75 7.398438 120 C 6.648438 121.125 5.601562 121.726562 4.625 121.949219 C 3.800781 122.101562 2.75 121.726562 2.074219 121.351562 C 1.550781 120.976562 1.175781 120.675781 0.949219 120 C 0.5 118.800781 0.800781 117.074219 1.398438 113.925781 C 3.648438 101.699219 22.398438 33.300781 27.125 26.324219 C 27.949219 25.125 28.398438 24.898438 29.148438 24.675781 C 29.976562 24.375 31.023438 24.449219 31.773438 24.824219 C 32.523438 25.125 33.351562 25.875 33.648438 26.625 C 34.023438 27.375 34.023438 27.824219 33.875 29.25 C 32.898438 36.226562 16.773438 76.800781 12.648438 90 C 10.773438 96.300781 10.925781 103.425781 8.898438 104.101562 C 7.550781 104.476562 4.550781 101.773438 3.800781 99.898438 C 3.050781 97.800781 4.25 95.476562 5.226562 91.5 C 7.925781 81.300781 18.574219 51.976562 24.351562 37.800781 C 28.25 28.199219 32.824219 17.398438 35.226562 14.023438 C 36.050781 12.976562 36.5 12.523438 37.25 12.226562 C 38.074219 11.925781 39.199219 11.925781 40.023438 12.226562 C 40.773438 12.449219 41.601562 13.199219 42.050781 13.949219 C 42.425781 14.699219 42.574219 15.449219 42.351562 16.648438 C 41.898438 19.574219 38.074219 24.75 35.375 30.523438 C 31.101562 39.75 24.050781 57.148438 20 67.351562 C 17.148438 74.550781 13.925781 81.226562 13.023438 85.800781 C 12.5 88.425781 13.476562 90.824219 12.875 92.25 C 12.425781 93.148438 11.523438 93.75 10.851562 94.125 C 10.25 94.351562 9.648438 94.5 8.976562 94.351562 C 8.226562 94.273438 7.101562 93.675781 6.5 93.148438 C 6.050781 92.699219 5.75 92.175781 5.601562 91.5 C 5.449219 90.75 5.523438 90 5.824219 88.726562 C 6.574219 85.800781 9.5 79.425781 11.824219 74.175781 C 14.675781 67.800781 18.199219 60.675781 21.875 53.476562 C 25.925781 45.375 30.574219 36.449219 35.375 27.976562 C 40.476562 19.125 48.050781 4.5 51.648438 1.351562 C 52.773438 0.375 53.675781 0.226562 54.574219 0.148438 C 55.324219 0.0742188 56 0.226562 56.675781 0.523438 C 57.5 0.976562 58.476562 2.023438 58.851562 2.851562 C 59.226562 3.523438 59.375 3.898438 59.226562 4.949219 C 58.699219 8.699219 51.425781 21.300781 48.050781 29.398438 C 44.824219 37.125 41.898438 45.148438 39.351562 52.425781 C 37.101562 58.800781 34.773438 64.875 33.425781 70.574219 C 32.300781 75.375 32.675781 81.523438 31.476562 84.074219 C 30.949219 85.273438 30.351562 85.949219 29.523438 86.398438 C 28.625 86.851562 27.425781 87 26.449219 86.773438 C 25.550781 86.550781 24.5 85.875 23.976562 85.050781 C 23.375 84.300781 23.148438 82.125 23.148438 82.125 " clip-rule="nonzero"/></clipPath><clipPath id="9dbe386a7d"><rect x="0" width="60" y="0" height="122"/></clipPath></defs><path fill="#ff5a5f" d="M 218.660156 257.617188 C 223.347656 252.28125 226.972656 247.089844 229.421875 242.179688 L 231.105469 238.925781 C 232.414062 236.890625 234.46875 232.867188 236.054688 229.671875 L 239.058594 223.160156 C 240.21875 221.539062 241.144531 220.203125 241.910156 218.957031 C 246.664062 214.847656 248.390625 212.578125 249.46875 210.855469 C 249.976562 210.101562 252.070312 207.992188 253.160156 206.894531 C 259.078125 201.023438 262.078125 194.484375 262.078125 187.453125 C 262.078125 178.335938 255.957031 170.742188 235.894531 154.976562 L 231.816406 151.757812 L 226.625 151.757812 C 222.238281 151.757812 217.554688 153.003906 212.320312 155.550781 C 210.074219 156.632812 208.074219 157.402344 206.378906 157.828125 C 203.550781 158.527344 197.003906 160.160156 193.363281 165.578125 C 191.894531 167.308594 190.421875 168.570312 188.996094 169.324219 C 184.164062 171.847656 179.953125 174.828125 176.449219 178.203125 C 175.960938 178.6875 173.894531 180.496094 167.941406 183.621094 C 153.703125 191.046875 151.574219 201.691406 151.574219 207.375 C 151.574219 215.945312 154.894531 223.277344 160.835938 228.195312 L 147.6875 247.886719 L 146.328125 250.484375 L 146.09375 251.015625 C 140.6875 265.640625 138.226562 270.097656 137.691406 270.996094 L 134.960938 273.71875 L 132.113281 277.859375 L 131.644531 278.761719 C 130.117188 282.597656 127.476562 288.300781 123.570312 296.199219 C 119.425781 304.578125 113.597656 317.410156 106.195312 334.441406 L 85.175781 386.652344 C 82.246094 390.980469 80.71875 393.566406 80.71875 398.058594 L 80.71875 404.074219 L 78.003906 416.28125 L 77.675781 418.988281 L 77.648438 419.527344 C 77.648438 432.855469 80.804688 446.589844 87.046875 460.351562 C 97 482.289062 111.289062 486.894531 121.523438 486.894531 C 135.042969 486.894531 142.121094 477.175781 142.121094 467.574219 L 141.8125 465.097656 C 142.730469 462.390625 143.070312 459.722656 142.949219 456.457031 L 142.132812 452.929688 C 142.199219 451.4375 142.515625 448.46875 143.707031 443.007812 C 145.109375 436.503906 145.996094 432.082031 146.503906 429.117188 C 146.679688 428.097656 147.050781 425.960938 147.285156 425.339844 C 148.328125 422.585938 148.910156 419.53125 149.015625 416.25 L 155.042969 402.375 C 157 398.199219 158.078125 394.019531 158.46875 389.046875 C 160.894531 386.257812 162.417969 382.945312 162.921875 379.328125 C 163.027344 379.042969 163.226562 378.59375 163.566406 377.921875 L 164.792969 374.25 L 164.972656 373.496094 C 166.113281 366.097656 167.015625 361.65625 167.632812 359.070312 L 171.539062 354.304688 L 172.265625 350.644531 C 173.765625 343.152344 175.609375 340.007812 176.320312 339.019531 C 179.980469 334.007812 183.015625 328.382812 185.046875 322.882812 L 193.222656 302.488281 L 193.347656 302.140625 C 196.234375 293.066406 198.066406 289.757812 198.554688 288.96875 C 201.535156 286.414062 203.738281 284.417969 205.28125 282.875 L 205.8125 282.34375 L 216.417969 262.285156 C 217.386719 260.214844 218.121094 258.65625 218.660156 257.617188 " fill-opacity="1" fill-rule="nonzero"/><path fill="#ff5a5f" d="M 427.175781 214.941406 C 425.964844 217.660156 424.992188 220.445312 424.269531 223.246094 C 423.546875 226.078125 422.855469 228.46875 422.214844 230.324219 C 421.300781 232.953125 420.480469 236.59375 419.652344 241.734375 C 418.824219 243.191406 418.183594 244.714844 417.726562 246.289062 C 416.300781 249.066406 415.777344 251.6875 415.535156 252.886719 C 415.523438 252.945312 415.222656 254.347656 413.125 258.871094 L 411.679688 262.859375 C 405.472656 267.882812 404.121094 273.496094 404.121094 277.421875 C 404.121094 277.957031 404.144531 278.496094 404.199219 279.027344 C 401.757812 282.363281 399.664062 286.128906 397.96875 290.261719 C 397.769531 290.75 397.585938 291.183594 397.414062 291.566406 L 392.847656 293.621094 L 388.53125 302.796875 C 388.144531 303.402344 386.242188 306.191406 379.128906 314.730469 C 370.414062 325.160156 366.742188 328.382812 365.835938 329.109375 C 362.628906 331.675781 358.632812 335.179688 356.960938 337.953125 L 354.371094 341.011719 C 352.179688 342.859375 349.988281 345.289062 347.695312 348.410156 C 340.441406 352.078125 334.648438 357.996094 330.441406 366.011719 C 326.28125 367.894531 323.011719 370.398438 320.691406 373.484375 L 317.535156 375.15625 L 316.714844 375.695312 C 308.972656 381.992188 297.972656 387.882812 284.15625 393.125 L 278.308594 395.175781 L 274.902344 396.929688 L 274.433594 397.222656 C 274.425781 397.222656 274.125 397.390625 273.59375 397.5 L 268.957031 396.691406 C 268.070312 395.296875 267.015625 393.960938 265.828125 392.492188 C 265.792969 392.152344 265.738281 391.554688 265.707031 390.554688 L 265.304688 387.617188 C 265.433594 386.183594 266.3125 379.808594 272.125 356.148438 L 272.125 356.15625 C 276.722656 337.433594 279.398438 330.632812 280.300781 328.652344 C 283.984375 324.796875 288.125 318.867188 293.613281 309.597656 L 295.269531 305.222656 L 295.578125 303.839844 C 295.691406 303.148438 295.789062 302.519531 295.882812 301.96875 C 302.972656 294.1875 306.152344 287.675781 306.152344 281.011719 C 306.152344 280.445312 306.167969 279.953125 306.207031 279.527344 C 313.445312 273.582031 318.265625 266.648438 320.558594 258.851562 L 322.792969 258.816406 L 325.433594 254.835938 C 329.414062 251.441406 330.839844 246.394531 331.933594 242.457031 C 332.070312 242.289062 332.242188 242.152344 332.648438 241.785156 L 335.203125 239.242188 L 337.617188 236 L 337.972656 235.414062 C 337.988281 235.402344 338.695312 234.199219 341.449219 231.433594 L 346.292969 226.375 L 346.742188 225.839844 C 348.253906 223.726562 349.296875 222.351562 350.015625 221.511719 C 351.644531 219.628906 353.054688 217.648438 354.214844 215.625 L 354.523438 215.082031 C 356.277344 213.945312 358.511719 212.324219 361.441406 210.046875 C 364.835938 211.898438 368.070312 212.152344 369.570312 212.152344 C 373.65625 212.152344 377.679688 210.707031 380.652344 208.269531 L 385.207031 204.988281 C 388.132812 203.46875 390.722656 201.464844 392.921875 199 C 396.832031 197.125 401.941406 195.164062 408.121094 193.152344 C 416.210938 190.539062 420.707031 188.878906 423.941406 187.46875 C 424.195312 188.109375 424.464844 188.746094 424.769531 189.363281 C 425.257812 193.261719 426.644531 196.824219 428.921875 199.976562 L 429.070312 200.683594 L 427.296875 207.917969 L 426.902344 210.890625 L 426.871094 211.484375 C 426.871094 212.515625 426.960938 213.582031 427.175781 214.941406 Z M 479.363281 264.628906 C 481.695312 259.65625 482.824219 255.0625 482.824219 250.597656 L 482.824219 246.484375 L 484.742188 239.550781 L 485.917969 243.0625 L 484.65625 230.527344 L 486.410156 227.394531 L 486.410156 223.5 C 486.410156 222.34375 486.316406 221.136719 486.140625 219.894531 C 486.664062 218.082031 486.917969 216.324219 486.917969 214.550781 C 486.917969 210.554688 485.664062 206.40625 482.714844 200.691406 C 481.980469 199.253906 481.597656 198.457031 481.398438 198.039062 C 481.035156 194.78125 480.34375 192.230469 479.296875 190.171875 C 478.753906 189.011719 475.765625 181.800781 474.785156 179.425781 C 470.957031 170.199219 466.890625 163.785156 461.617188 158.628906 L 452.554688 149.773438 L 450.625 148.078125 L 450.101562 147.675781 C 450.089844 147.664062 448.945312 146.855469 446.632812 143.917969 L 443.8125 140.351562 L 439.515625 138.964844 C 439.117188 138.828125 438.003906 138.457031 434.222656 137.773438 L 430.378906 132.152344 L 425.8125 133.738281 C 425.550781 127.261719 421.996094 114.210938 397.574219 114.210938 C 393.332031 114.210938 390.75 115.589844 383.046875 119.691406 C 378.046875 122.394531 373.445312 125.941406 369.359375 130.25 C 363.695312 132.269531 359.765625 134.527344 357.160156 137.191406 L 354.316406 139.871094 C 350.644531 141.863281 347.0625 144.253906 343.25 147.289062 L 335.382812 154.152344 C 332.761719 155.5 329.808594 157.660156 325.433594 161.414062 C 320.71875 165.5 316.394531 169.695312 312.113281 174.359375 L 304.644531 183.050781 C 300 185.8125 295.652344 190.332031 291.550781 196.613281 L 291.550781 196.617188 C 287.445312 199.585938 283.671875 203.476562 280.3125 208.195312 C 276.945312 212.953125 274.617188 216.445312 273.683594 220.203125 C 269.59375 222.722656 265.8125 226.414062 262.410156 231.21875 L 260.429688 234.027344 C 258.457031 236.824219 257.53125 238.144531 257.054688 238.851562 C 249.734375 246.289062 245.613281 254.164062 244.773438 262.300781 C 239.492188 266.867188 237.023438 272.261719 235.917969 276.027344 L 234.351562 280.746094 C 231.980469 282.679688 230.148438 285.171875 229.03125 287.960938 L 224.609375 297.910156 C 222.101562 301.609375 220.71875 306.023438 220.597656 310.746094 C 218.972656 313.027344 217.4375 315.957031 215.800781 319.871094 L 213.710938 325.40625 L 214.359375 327.339844 C 212.148438 331.578125 210.484375 337.371094 209.160156 345.425781 C 207.859375 353.355469 207.292969 358.105469 207.339844 361.160156 L 209.082031 383.183594 C 209.132812 388.417969 211.039062 393.175781 214.597656 397.007812 L 220.207031 406 C 223.480469 411.015625 226.136719 414.433594 228.933594 417.199219 L 247.835938 434.835938 L 250.414062 436.742188 L 250.96875 437.089844 C 254.789062 439.136719 257.703125 440.9375 259.875 442.59375 C 264.28125 445.929688 269.445312 448.382812 275.210938 449.863281 L 280.644531 451.300781 L 285.730469 448.777344 C 290.144531 450.847656 294.667969 451.90625 299.195312 451.90625 C 303.066406 451.90625 306.84375 450.703125 310.445312 448.324219 C 316.074219 448.292969 321.472656 447.214844 326.527344 445.097656 L 334.085938 441.851562 C 349.125 438.632812 362.4375 430.820312 373.660156 418.644531 C 383.335938 416.398438 392.519531 409.511719 401.628906 397.6875 L 416.886719 378.507812 L 416.886719 378.277344 C 417.695312 377.351562 418.679688 376.253906 419.820312 374.976562 C 423.480469 370.90625 426.113281 367.207031 427.835938 363.722656 C 434.46875 360.363281 439.066406 354.644531 441 347.351562 C 446.433594 343.5625 450.730469 338.1875 453.789062 331.34375 C 456.082031 326.203125 457.085938 324.839844 457.117188 324.796875 C 460.558594 320.433594 462.378906 315.28125 462.378906 309.894531 C 462.378906 309.566406 462.386719 309.277344 462.394531 309.011719 C 467.378906 303.171875 469.796875 296.78125 469.753906 289.523438 L 469.742188 289.171875 C 474.308594 285.757812 476.945312 280.347656 476.945312 274.101562 C 476.945312 273.125 476.871094 272.273438 476.679688 271.164062 C 477.214844 269.886719 477.5625 268.929688 477.695312 268.375 C 477.800781 268.066406 478.148438 267.175781 479.363281 264.628906 " fill-opacity="1" fill-rule="nonzero"/><g clip-path="url(#a8432fe955)"><path fill="#ff5a5f" d="M 698.359375 181.734375 C 697.148438 184.449219 696.171875 187.234375 695.449219 190.035156 C 694.730469 192.886719 694.039062 195.265625 693.394531 197.113281 C 692.484375 199.742188 691.660156 203.386719 690.835938 208.523438 C 690.007812 209.980469 689.367188 211.496094 688.910156 213.078125 C 687.476562 215.867188 686.953125 218.496094 686.71875 219.671875 C 686.707031 219.734375 686.40625 221.140625 684.304688 225.664062 L 682.863281 229.644531 C 676.65625 234.675781 675.304688 240.285156 675.304688 244.210938 C 675.304688 244.746094 675.328125 245.28125 675.382812 245.808594 C 672.941406 249.144531 670.847656 252.917969 669.144531 257.058594 C 668.945312 257.542969 668.769531 257.976562 668.601562 258.351562 L 664.027344 260.40625 L 659.714844 269.589844 C 659.328125 270.1875 657.417969 272.976562 650.3125 281.519531 C 641.601562 291.949219 637.925781 295.167969 637.019531 295.902344 C 633.808594 298.464844 629.8125 301.976562 628.144531 304.738281 L 625.554688 307.800781 C 623.34375 309.664062 621.191406 312.039062 618.875 315.199219 C 611.625 318.871094 605.832031 324.777344 601.617188 332.800781 C 597.460938 334.679688 594.191406 337.1875 591.871094 340.273438 L 588.710938 341.945312 L 587.898438 342.480469 C 580.148438 348.789062 569.148438 354.667969 555.339844 359.914062 L 549.488281 361.964844 L 546.082031 363.722656 L 545.613281 364.011719 C 545.609375 364.011719 545.304688 364.183594 544.773438 364.289062 L 540.140625 363.480469 C 539.253906 362.085938 538.195312 360.746094 537.011719 359.285156 C 536.96875 358.9375 536.917969 358.339844 536.886719 357.339844 L 536.488281 354.402344 C 536.617188 352.964844 537.5 346.574219 543.304688 322.9375 L 543.304688 322.945312 C 547.898438 304.238281 550.582031 297.425781 551.484375 295.441406 C 555.167969 291.589844 559.308594 285.652344 564.792969 276.382812 L 566.453125 272.007812 L 566.816406 270.289062 C 566.902344 269.730469 566.992188 269.21875 567.058594 268.757812 C 574.15625 260.980469 577.332031 254.472656 577.332031 247.808594 C 577.332031 247.234375 577.351562 246.738281 577.382812 246.3125 C 584.628906 240.378906 589.445312 233.433594 591.742188 225.648438 L 593.976562 225.605469 L 596.617188 221.628906 C 600.597656 218.222656 602.023438 213.183594 603.113281 209.25 C 603.25 209.078125 603.421875 208.941406 603.832031 208.570312 L 606.386719 206.03125 L 608.792969 202.796875 L 609.164062 202.199219 C 609.167969 202.183594 609.878906 200.988281 612.628906 198.222656 L 617.476562 193.167969 L 617.925781 192.625 C 619.445312 190.515625 620.488281 189.140625 621.195312 188.304688 C 622.824219 186.417969 624.238281 184.4375 625.40625 182.40625 L 625.707031 181.875 C 627.464844 180.734375 629.695312 179.113281 632.625 176.835938 C 636.019531 178.6875 639.253906 178.9375 640.75 178.9375 C 644.84375 178.9375 648.855469 177.5 651.835938 175.0625 L 656.382812 171.773438 C 659.3125 170.261719 661.90625 168.25 664.101562 165.789062 C 668.007812 163.914062 673.117188 161.949219 679.300781 159.945312 C 687.390625 157.335938 691.890625 155.675781 695.125 154.253906 C 695.378906 154.898438 695.648438 155.53125 695.949219 156.148438 C 696.433594 160.042969 697.828125 163.597656 700.105469 166.757812 L 700.253906 167.480469 L 698.480469 174.707031 L 698.085938 177.679688 L 698.054688 178.273438 C 698.054688 179.308594 698.140625 180.375 698.359375 181.734375 Z M 758.097656 181.339844 C 758.097656 177.339844 756.839844 173.195312 753.902344 167.484375 C 753.148438 166.03125 752.773438 165.226562 752.582031 164.808594 C 752.210938 161.5625 751.527344 159.019531 750.476562 156.957031 C 750.101562 156.164062 748.582031 152.546875 745.964844 146.214844 C 742.132812 136.988281 738.074219 130.570312 732.796875 125.425781 L 723.738281 116.5625 L 721.800781 114.867188 L 721.28125 114.464844 C 721.269531 114.457031 720.128906 113.652344 717.816406 110.714844 L 714.996094 107.144531 L 710.6875 105.746094 C 709.421875 105.332031 707.359375 104.90625 705.398438 104.554688 L 701.558594 98.9375 L 696.992188 100.523438 C 696.734375 94.050781 693.179688 81 668.753906 81 C 664.515625 81 661.929688 82.375 654.230469 86.480469 C 649.222656 89.183594 644.628906 92.730469 640.542969 97.039062 C 634.882812 99.0625 630.945312 101.320312 628.34375 103.980469 L 625.496094 106.660156 C 621.824219 108.65625 618.253906 111.039062 614.433594 114.078125 L 606.566406 120.9375 C 603.9375 122.296875 600.992188 124.457031 596.625 128.203125 C 591.902344 132.285156 587.578125 136.484375 583.292969 141.148438 L 575.828125 149.835938 C 571.179688 152.601562 566.84375 157.117188 562.734375 163.402344 L 562.734375 163.40625 C 558.628906 166.382812 554.851562 170.269531 551.496094 174.984375 C 548.125 179.746094 545.800781 183.242188 544.867188 186.992188 C 540.777344 189.511719 536.992188 193.199219 533.59375 198.007812 L 531.710938 200.671875 C 529.679688 203.554688 528.722656 204.914062 528.238281 205.640625 C 520.917969 213.078125 516.796875 220.957031 515.957031 229.089844 C 510.667969 233.664062 508.199219 239.054688 507.09375 242.816406 L 505.535156 247.535156 C 503.171875 249.46875 501.332031 251.964844 500.214844 254.75 L 495.796875 264.695312 C 493.277344 268.40625 491.902344 272.816406 491.777344 277.53125 C 490.15625 279.820312 488.621094 282.742188 486.984375 286.640625 L 484.890625 292.167969 L 485.546875 294.121094 C 483.324219 298.367188 481.664062 304.160156 480.34375 312.214844 C 479.035156 320.148438 478.472656 324.902344 478.523438 327.949219 L 480.269531 349.972656 C 480.3125 355.207031 482.21875 359.96875 485.785156 363.796875 L 491.390625 372.785156 C 494.65625 377.796875 497.3125 381.214844 500.105469 383.988281 L 519.015625 401.625 L 521.597656 403.53125 L 522.144531 403.875 C 525.972656 405.929688 528.886719 407.726562 531.058594 409.375 C 535.464844 412.71875 540.628906 415.167969 546.390625 416.648438 L 551.828125 418.09375 L 556.914062 415.5625 C 561.320312 417.644531 565.847656 418.699219 570.378906 418.699219 C 574.242188 418.699219 578.019531 417.496094 581.628906 415.121094 C 587.257812 415.089844 592.65625 414.003906 597.710938 411.886719 L 605.269531 408.640625 C 620.308594 405.417969 633.617188 397.605469 644.84375 385.429688 C 654.519531 383.191406 663.703125 376.296875 672.808594 364.476562 L 688.070312 345.296875 L 688.070312 345.074219 C 688.878906 344.140625 689.859375 343.042969 691 341.765625 C 694.65625 337.699219 697.296875 333.996094 699.019531 330.511719 C 705.652344 327.152344 710.242188 321.433594 712.179688 314.136719 C 717.617188 310.347656 721.910156 304.972656 724.972656 298.132812 C 727.261719 292.992188 728.300781 291.589844 728.300781 291.589844 C 731.742188 287.226562 733.5625 282.074219 733.5625 276.679688 C 733.5625 276.359375 733.570312 276.0625 733.574219 275.796875 C 738.566406 269.960938 740.980469 263.566406 740.9375 256.316406 L 740.925781 255.957031 C 745.484375 252.546875 748.125 247.132812 748.125 240.890625 C 748.125 240.011719 748.078125 239.199219 747.859375 237.953125 C 748.386719 236.691406 748.742188 235.71875 748.886719 235.15625 C 748.976562 234.859375 749.324219 233.976562 750.546875 231.417969 C 752.878906 226.441406 754.007812 221.851562 754.007812 217.390625 L 754.007812 213.273438 L 756.289062 205.023438 L 755.480469 197.957031 L 757.59375 194.179688 L 757.59375 190.289062 C 757.59375 189.128906 757.5 187.917969 757.320312 186.683594 C 757.84375 184.875 758.097656 183.117188 758.097656 181.339844 " fill-opacity="1" fill-rule="nonzero"/></g><path fill="#ff5a5f" d="M 321.585938 548.097656 L 305.964844 551.890625 L 314.832031 548.117188 L 323.257812 546.277344 Z M 282.035156 531.847656 C 279.929688 533.566406 277.277344 534.835938 274.277344 535.570312 L 251.734375 541.042969 L 266.027344 535.664062 C 266.984375 535.300781 267.988281 535.003906 269.027344 534.769531 Z M 298.140625 521.40625 L 309.347656 518.890625 L 306.890625 520.902344 L 286.046875 525.96875 Z M 324.21875 534.066406 C 320.71875 536.71875 316.511719 538.773438 311.816406 540.117188 L 275.171875 550.601562 L 298.492188 541.308594 C 299.96875 540.722656 301.511719 540.210938 303.097656 539.777344 Z M 605.859375 497.339844 C 597.671875 495.167969 589.519531 495.152344 582.355469 496.828125 C 575.007812 495.089844 557.160156 491.324219 549.625 495.816406 L 518.300781 492.535156 L 494.683594 492.515625 L 494.140625 492.523438 C 479.832031 493.410156 475.074219 493.152344 474.085938 493.070312 L 470.574219 492.113281 L 465.875 491.503906 L 464.921875 491.464844 C 461.121094 491.632812 455.277344 491.628906 447.0625 491.460938 C 438.34375 491.292969 425.257812 491.355469 408.039062 491.664062 L 354.757812 502.421875 C 349.878906 501.808594 347.058594 501.59375 343.480469 502.949219 L 338.691406 504.765625 L 327.625 506.679688 L 325.3125 507.28125 L 324.867188 507.429688 C 315.703125 510.898438 273.519531 524.949219 257.046875 534.027344 L 249.558594 537.082031 C 248.003906 537.71875 246.519531 538.457031 245.144531 539.292969 L 224.523438 551.714844 L 248.527344 541.363281 C 247.347656 543.285156 251.328125 542.382812 249.605469 544.179688 L 233.832031 550.898438 L 273.945312 542.316406 C 275.605469 542.574219 268.335938 544.085938 269.164062 545.179688 C 269.453125 545.574219 269.699219 545.980469 269.921875 546.394531 L 258 549 L 232.617188 559.816406 L 271.125 550.460938 C 271.21875 551.347656 271.21875 552.257812 263.816406 554.503906 L 238.566406 563.117188 L 286.316406 554.089844 C 285.902344 556.152344 269.6875 560.605469 269.21875 562.273438 L 266.058594 562.964844 L 240.671875 573.78125 L 268.765625 566.949219 C 269.125 567.34375 269.828125 567.371094 271.0625 566.898438 L 272.878906 565.957031 C 275.339844 565.746094 277.523438 565.203125 279.894531 564.246094 L 285.386719 562.914062 L 286.738281 561.4375 C 287.984375 561.160156 289.515625 560.859375 291.410156 560.527344 C 292.457031 560.339844 293.371094 560.175781 294.300781 560 L 288.78125 562.351562 L 305.664062 558.25 C 307.464844 557.808594 309.039062 557.007812 310.335938 555.910156 C 316.457031 553.742188 324.726562 550.78125 325.121094 550.757812 C 327.824219 550.609375 361.28125 545.210938 363.949219 544.285156 L 377.96875 544.035156 C 382.257812 544.050781 386.121094 543.492188 390.273438 542.246094 C 393.691406 542.988281 397.078125 542.980469 400.214844 542.214844 C 400.492188 542.203125 400.949219 542.199219 401.652344 542.210938 L 405.175781 541.90625 L 405.859375 541.796875 C 412.320312 540.308594 416.300781 539.558594 418.671875 539.175781 L 424.386719 540.285156 L 427.664062 539.660156 C 434.371094 538.378906 437.785156 538.632812 438.914062 538.796875 C 444.714844 539.675781 450.6875 539.953125 456.066406 539.617188 L 476.339844 538.796875 L 476.679688 538.773438 C 485.332031 537.914062 488.867188 538.117188 489.738281 538.191406 C 493.234375 539.371094 495.914062 540.203125 497.902344 540.746094 L 498.585938 540.933594 L 519.78125 541.796875 C 521.910156 541.808594 523.523438 541.816406 524.609375 541.851562 C 531.167969 543.300781 537.085938 544.097656 542.203125 544.214844 L 545.625 544.328125 C 547.890625 544.566406 552.105469 544.695312 555.4375 544.765625 L 562.101562 544.765625 C 563.964844 545.03125 565.484375 545.226562 566.847656 545.359375 C 572.464844 547.214844 575.128906 547.660156 577.03125 547.84375 C 577.066406 547.84375 577.128906 547.855469 577.171875 547.863281 C 580.707031 549.875 584.640625 551.523438 588.933594 552.65625 C 609.546875 558.117188 630.046875 550.160156 634.722656 534.886719 C 639.394531 519.605469 626.472656 502.796875 605.859375 497.339844 " fill-opacity="1" fill-rule="nonzero"/><path fill="#ff5a5f" d="M 230.148438 571.269531 L 247.039062 565.5625 L 241.578125 568.492188 Z M 230.148438 571.269531 " fill-opacity="1" fill-rule="nonzero"/><path fill="#ff5a5f" d="M 266.089844 561.308594 L 259.054688 565.121094 L 254.949219 565.195312 L 251.605469 565.152344 L 266.089844 561.308594 " fill-opacity="1" fill-rule="nonzero"/><path fill="#ff5a5f" d="M 231.292969 555.558594 L 220.042969 560.101562 L 239.78125 554.835938 L 241.9375 552.917969 L 231.292969 555.558594 " fill-opacity="1" fill-rule="nonzero"/><g clip-path="url(#990fc403e0)"><path fill="#ff5a5f" d="M 149.703125 689.746094 L 134.992188 695.507812 L 143.066406 690.644531 L 151.03125 687.738281 Z M 107.945312 679.007812 C 106.175781 680.96875 103.78125 682.5625 100.953125 683.671875 L 79.726562 692.003906 L 92.851562 684.84375 C 93.734375 684.371094 94.667969 683.945312 95.648438 683.582031 Z M 121.980469 666.660156 L 132.574219 662.722656 L 130.5 665.019531 L 110.863281 672.71875 Z M 149.851562 675.636719 C 146.871094 678.699219 143.089844 681.265625 138.703125 683.203125 L 104.453125 698.292969 L 125.792969 686.117188 C 127.144531 685.351562 128.570312 684.640625 130.058594 684.011719 Z M 420.683594 602.648438 C 412.246094 601.59375 404.21875 602.648438 397.457031 605.234375 C 389.921875 604.488281 371.699219 603.148438 365.066406 608.542969 L 333.660156 609.4375 L 310.410156 612.523438 L 309.871094 612.601562 C 295.945312 615.347656 291.21875 615.71875 290.230469 615.769531 L 286.613281 615.300781 L 281.875 615.3125 L 280.9375 615.402344 C 277.214844 616.0625 271.464844 616.828125 263.355469 617.75 C 254.742188 618.722656 241.867188 620.507812 224.976562 623.066406 L 174.402344 640.605469 C 169.488281 640.65625 166.679688 640.816406 163.390625 642.613281 L 158.992188 645.019531 L 148.441406 648.351562 L 146.261719 649.246094 L 145.855469 649.449219 C 137.4375 654.050781 98.363281 673.367188 83.730469 684.425781 L 76.894531 688.40625 C 75.46875 689.238281 74.140625 690.152344 72.933594 691.152344 L 54.796875 706.035156 L 76.617188 692.738281 C 75.796875 694.769531 79.554688 693.367188 78.171875 695.355469 L 63.816406 704.011719 L 101.804688 690.332031 C 103.484375 690.367188 96.589844 692.804688 97.589844 693.769531 C 97.957031 694.113281 98.265625 694.484375 98.558594 694.855469 L 87.273438 698.976562 L 64.167969 712.917969 L 100.449219 698.6875 C 100.6875 699.542969 100.851562 700.433594 93.960938 703.605469 L 70.605469 715.367188 L 116.035156 700.25 C 115.988281 702.320312 100.800781 708.820312 100.628906 710.511719 L 97.632812 711.601562 L 74.53125 725.542969 L 100.996094 715.164062 C 101.417969 715.496094 102.121094 715.429688 103.242188 714.8125 L 104.875 713.644531 C 107.253906 713.113281 109.316406 712.292969 111.480469 711.046875 L 116.652344 709.015625 L 117.726562 707.394531 C 118.90625 706.960938 120.363281 706.460938 122.164062 705.886719 C 123.164062 705.566406 124.035156 705.285156 124.921875 704.992188 L 119.898438 708.015625 L 135.800781 701.785156 C 137.5 701.113281 138.90625 700.117188 139.992188 698.878906 C 145.636719 695.945312 153.265625 691.960938 153.648438 691.886719 C 156.285156 691.378906 188.28125 681.691406 190.742188 680.441406 L 204.496094 678.355469 C 208.722656 677.804688 212.425781 676.75 216.296875 674.984375 C 219.789062 675.257812 223.125 674.804688 226.078125 673.652344 C 226.34375 673.597656 226.792969 673.535156 227.488281 673.453125 L 230.910156 672.6875 L 231.5625 672.492188 C 237.660156 670.191406 241.453125 668.925781 243.714844 668.246094 L 249.53125 668.578125 L 252.648438 667.535156 C 259.03125 665.402344 262.4375 665.195312 263.578125 665.214844 C 269.433594 665.308594 275.363281 664.796875 280.601562 663.765625 L 300.417969 660.296875 L 300.746094 660.230469 C 309.113281 658.253906 312.625 657.984375 313.496094 657.945312 C 317.148438 658.636719 319.925781 659.105469 321.972656 659.371094 L 322.683594 659.464844 L 343.699219 657.53125 C 345.792969 657.261719 347.378906 657.058594 348.457031 656.953125 C 355.167969 657.515625 361.128906 657.515625 366.1875 656.953125 L 369.574219 656.621094 C 371.847656 656.558594 376.023438 656.125 379.308594 655.753906 L 385.867188 654.878906 C 387.75 654.898438 389.28125 654.890625 390.648438 654.835938 C 396.492188 655.917969 399.195312 656.003906 401.097656 655.933594 C 401.132812 655.933594 401.195312 655.941406 401.238281 655.941406 C 405.070312 657.441406 409.230469 658.546875 413.65625 659.09375 C 434.894531 661.734375 453.691406 651.246094 455.628906 635.65625 C 457.566406 620.070312 441.925781 605.289062 420.683594 602.648438 " fill-opacity="1" fill-rule="nonzero"/></g><path fill="#ff5a5f" d="M 63.730469 724.523438 L 79.472656 715.625 L 74.5625 719.675781 Z M 63.730469 724.523438 " fill-opacity="1" fill-rule="nonzero"/><path fill="#ff5a5f" d="M 97.585938 707.957031 L 91.261719 713.214844 L 87.222656 713.953125 L 83.910156 714.449219 L 97.585938 707.957031 " fill-opacity="1" fill-rule="nonzero"/><g clip-path="url(#80eff4e921)"><path fill="#ff5a5f" d="M 62.289062 707.339844 L 51.921875 714.066406 L 70.550781 705.183594 L 72.359375 702.765625 L 62.289062 707.339844 " fill-opacity="1" fill-rule="nonzero"/></g><g clip-path="url(#a1cbd35487)"><g clip-path="url(#87bdb4eeba)"><g transform="matrix(1, 0, 0, 1, 106, 294)"><g clip-path="url(#9dbe386a7d)"><g clip-path="url(#33d3be7b55)"><g clip-path="url(#515a01f0d3)"><rect x="-284.2" width="1166.4" fill="#ff5a5f" height="1166.39999" y="-472.199998" fill-opacity="1"/></g></g></g></g></g></g></svg>